<mxfile host="app.diagrams.net" modified="2023-04-21T02:49:36.441Z" agent="Mozilla/5.0 (Macintosh; Intel Mac OS X 10_15_7) AppleWebKit/537.36 (KHTML, like Gecko) Chrome/112.0.0.0 Safari/537.36" etag="dfvqu93GgWq5AWqvYMnt" version="21.1.9" type="github">
  <diagram name="Page-1" id="Yryssm5vQ5cDBSYDa8HQ">
    <mxGraphModel dx="1910" dy="1670" grid="1" gridSize="10" guides="1" tooltips="1" connect="1" arrows="1" fold="1" page="1" pageScale="1" pageWidth="850" pageHeight="1100" math="0" shadow="0">
      <root>
        <mxCell id="0" />
        <mxCell id="1" parent="0" />
        <mxCell id="QmPXZYWLmJcXy5VNLuwl-1" value="&lt;font style=&quot;font-size: 15px;&quot;&gt;Workflow&lt;/font&gt;" style="rounded=0;whiteSpace=wrap;html=1;" vertex="1" parent="1">
          <mxGeometry x="320" y="330" width="150" height="60" as="geometry" />
        </mxCell>
        <mxCell id="QmPXZYWLmJcXy5VNLuwl-10" value="" style="edgeStyle=orthogonalEdgeStyle;rounded=0;orthogonalLoop=1;jettySize=auto;html=1;" edge="1" parent="1" source="QmPXZYWLmJcXy5VNLuwl-2" target="QmPXZYWLmJcXy5VNLuwl-4">
          <mxGeometry relative="1" as="geometry" />
        </mxCell>
        <mxCell id="QmPXZYWLmJcXy5VNLuwl-2" value="获取APP镜像" style="rounded=0;whiteSpace=wrap;html=1;" vertex="1" parent="1">
          <mxGeometry x="80" y="180" width="120" height="60" as="geometry" />
        </mxCell>
        <mxCell id="QmPXZYWLmJcXy5VNLuwl-9" value="" style="edgeStyle=orthogonalEdgeStyle;rounded=0;orthogonalLoop=1;jettySize=auto;html=1;" edge="1" parent="1" source="QmPXZYWLmJcXy5VNLuwl-3" target="QmPXZYWLmJcXy5VNLuwl-2">
          <mxGeometry relative="1" as="geometry" />
        </mxCell>
        <mxCell id="QmPXZYWLmJcXy5VNLuwl-3" value="模板发布初始化" style="rounded=0;whiteSpace=wrap;html=1;" vertex="1" parent="1">
          <mxGeometry x="-70" y="180" width="120" height="60" as="geometry" />
        </mxCell>
        <mxCell id="QmPXZYWLmJcXy5VNLuwl-11" value="" style="edgeStyle=orthogonalEdgeStyle;rounded=0;orthogonalLoop=1;jettySize=auto;html=1;" edge="1" parent="1" source="QmPXZYWLmJcXy5VNLuwl-4" target="QmPXZYWLmJcXy5VNLuwl-5">
          <mxGeometry relative="1" as="geometry" />
        </mxCell>
        <mxCell id="QmPXZYWLmJcXy5VNLuwl-4" value="Pandora创建APP" style="rounded=0;whiteSpace=wrap;html=1;" vertex="1" parent="1">
          <mxGeometry x="250" y="180" width="120" height="60" as="geometry" />
        </mxCell>
        <mxCell id="QmPXZYWLmJcXy5VNLuwl-12" value="" style="edgeStyle=orthogonalEdgeStyle;rounded=0;orthogonalLoop=1;jettySize=auto;html=1;" edge="1" parent="1" source="QmPXZYWLmJcXy5VNLuwl-5" target="QmPXZYWLmJcXy5VNLuwl-6">
          <mxGeometry relative="1" as="geometry" />
        </mxCell>
        <mxCell id="QmPXZYWLmJcXy5VNLuwl-5" value="换库" style="rounded=0;whiteSpace=wrap;html=1;" vertex="1" parent="1">
          <mxGeometry x="425" y="180" width="120" height="60" as="geometry" />
        </mxCell>
        <mxCell id="QmPXZYWLmJcXy5VNLuwl-13" value="" style="edgeStyle=orthogonalEdgeStyle;rounded=0;orthogonalLoop=1;jettySize=auto;html=1;" edge="1" parent="1" source="QmPXZYWLmJcXy5VNLuwl-6" target="QmPXZYWLmJcXy5VNLuwl-7">
          <mxGeometry relative="1" as="geometry" />
        </mxCell>
        <mxCell id="QmPXZYWLmJcXy5VNLuwl-6" value="CSP校验" style="rounded=0;whiteSpace=wrap;html=1;" vertex="1" parent="1">
          <mxGeometry x="580" y="180" width="120" height="60" as="geometry" />
        </mxCell>
        <mxCell id="QmPXZYWLmJcXy5VNLuwl-7" value="Dump任务" style="rounded=0;whiteSpace=wrap;html=1;" vertex="1" parent="1">
          <mxGeometry x="740" y="180" width="120" height="60" as="geometry" />
        </mxCell>
        <mxCell id="QmPXZYWLmJcXy5VNLuwl-15" value="" style="edgeStyle=orthogonalEdgeStyle;rounded=0;orthogonalLoop=1;jettySize=auto;html=1;" edge="1" parent="1" source="QmPXZYWLmJcXy5VNLuwl-14" target="QmPXZYWLmJcXy5VNLuwl-1">
          <mxGeometry relative="1" as="geometry" />
        </mxCell>
        <mxCell id="QmPXZYWLmJcXy5VNLuwl-14" value="" style="rounded=0;whiteSpace=wrap;html=1;fillColor=none;" vertex="1" parent="1">
          <mxGeometry x="-80" y="100" width="950" height="190" as="geometry" />
        </mxCell>
        <mxCell id="QmPXZYWLmJcXy5VNLuwl-18" value="" style="edgeStyle=orthogonalEdgeStyle;rounded=0;orthogonalLoop=1;jettySize=auto;html=1;" edge="1" parent="1" source="QmPXZYWLmJcXy5VNLuwl-16" target="QmPXZYWLmJcXy5VNLuwl-17">
          <mxGeometry relative="1" as="geometry" />
        </mxCell>
        <mxCell id="QmPXZYWLmJcXy5VNLuwl-16" value="前端" style="rounded=0;whiteSpace=wrap;html=1;" vertex="1" parent="1">
          <mxGeometry x="-80" y="-110" width="120" height="60" as="geometry" />
        </mxCell>
        <mxCell id="QmPXZYWLmJcXy5VNLuwl-19" value="" style="edgeStyle=orthogonalEdgeStyle;rounded=0;orthogonalLoop=1;jettySize=auto;html=1;" edge="1" parent="1" source="QmPXZYWLmJcXy5VNLuwl-17" target="QmPXZYWLmJcXy5VNLuwl-14">
          <mxGeometry relative="1" as="geometry" />
        </mxCell>
        <mxCell id="QmPXZYWLmJcXy5VNLuwl-17" value="修改环境模板" style="rounded=0;whiteSpace=wrap;html=1;" vertex="1" parent="1">
          <mxGeometry x="-80" y="-10" width="120" height="60" as="geometry" />
        </mxCell>
      </root>
    </mxGraphModel>
  </diagram>
</mxfile>
